<svg xmlns="http://www.w3.org/2000/svg" style="display: none;"><symbol id="picnic" viewBox="0 0 512 512"><title>picnic</title><path id="XMLID_2222_" d="m60 188.862h392v313.138h-392z" fill="#f8f8f8"/><path id="XMLID_2218_" d="m448 156.833v-112.319h-54v68.354z" fill="#9da5be"/><path id="XMLID_2215_" d="m30 188.862 226-178.862 226 178.862z" fill="#ff7a7a"/><g id="XMLID_1814_"><path id="XMLID_2212_" d="m143 188.862-56.5 90.804-56.5-90.804z" fill="#a0c8ff"/><path id="XMLID_1924_" d="m256 188.862-56.5 90.804-56.5-90.804z" fill="#d5ea7a"/><path id="XMLID_1922_" d="m369 188.862-56.5 90.804-56.5-90.804z" fill="#ffd88e"/><path id="XMLID_1915_" d="m482 188.862-56.5 90.804-56.5-90.804z" fill="#ff7a7a"/></g><path id="XMLID_1806_" d="m196 328h120v120h-120z" fill="#bedaff"/><g id="XMLID_12_"><path id="XMLID_38_" d="m482 492h-20v-252.066l28.491-45.789s.707-1.289.954-1.998c1.398-4.02.099-8.485-3.239-11.126l-30.206-23.907v-112.6c0-5.523-4.477-10-10-10h-54c-5.523 0-10 4.477-10 10v54.035l-121.794-96.391c-3.637-2.878-8.775-2.878-12.412 0l-226 178.862c-3.337 2.642-4.637 7.106-3.239 11.126.247.709.954 1.998.954 1.998l28.491 45.79v103.066c0 5.523 4.477 10 10 10s10-4.477 10-10v-70.922l8.009 12.872c1.825 2.933 5.036 4.717 8.491 4.717s6.666-1.784 8.491-4.717l48.009-77.159 48.009 77.159c1.825 2.933 5.036 4.717 8.491 4.717s6.666-1.784 8.491-4.717l48.009-77.159 48.009 77.159c1.825 2.933 5.036 4.717 8.491 4.717s6.666-1.784 8.491-4.717l48.009-77.159 48.009 77.159c1.825 2.933 5.036 4.717 8.491 4.717s6.666-1.784 8.491-4.717l8.009-12.873v219.923h-372v-59c0-5.523-4.477-10-10-10s-10 4.477-10 10v59h-20c-5.523 0-10 4.477-10 10s4.477 10 10 10h452c5.523 0 10-4.477 10-10s-4.477-10-10-10zm-78-437.486h34v86.772l-34-26.908zm-317.5 206.224-38.5-61.876h77zm113 0-38.5-61.876h77zm113 0-38.5-61.876h77zm-253.751-81.876 197.251-156.109 197.251 156.109zm366.751 81.876-38.5-61.876h77z"/><path id="XMLID_2404_" d="m316 458c5.523 0 10-4.477 10-10v-120c0-5.523-4.477-10-10-10h-120c-5.523 0-10 4.477-10 10v120c0 5.523 4.477 10 10 10zm-110-60h40v40h-40zm60 40v-40h40v40zm40-60h-40v-40h40zm-60-40v40h-40v-40z"/><path id="XMLID_2408_" d="m60 398c2.63 0 5.21-1.07 7.07-2.93s2.93-4.44 2.93-7.07-1.07-5.21-2.93-7.07-4.44-2.93-7.07-2.93-5.21 1.07-7.07 2.93-2.93 4.44-2.93 7.07 1.07 5.21 2.93 7.07c1.86 1.859 4.44 2.93 7.07 2.93z"/></g></symbol><symbol id="home" viewBox="0 0 512 512"><title>home</title><path d="m72.108 239.609v272.391h223.316l-39.424-452.108z" fill="#f1e3c9"/><path d="m72.108 34.741h62.525v141.68h-62.525z" fill="#0052be"/><path d="m256 59.892v452.108h183.892v-272.391z" fill="#ecd5af"/><g><g><path d="m8.017 236.728 46.244 48.203 201.739-192.362 13.536-41.473-13.536-51.096z" fill="#ff5c5c"/><path d="m256 0v92.569l201.739 192.362 46.244-48.203z" fill="#ff2929"/></g><g><g><path d="m208.15 425.566h30v86.434h-30z" fill="#9d5e4a"/></g><g><path d="m333.09 394.45-49.675-46.558 20.435-21.964 49.675 46.558z" fill="#865240"/></g><g><path d="m178.91 394.45 50.557-46.764-20.435-21.964-50.557 46.764z" fill="#9d5e4a"/></g><g><path d="m273.85 425.566h30v86.434h-30z" fill="#865240"/></g></g></g><g><path d="m223.652 310.637-15.502 15.639v114.29h58.744l-10.894-130.247z" fill="#accefd"/><path d="m286.403 310.021-30.403.298v130.247h47.85v-114.669z" fill="#8bbafd"/></g><path d="m206.556 275.396c0 27.264 22.181 49.444 49.444 49.444l13.536-49.444-13.536-49.445c-27.264 0-49.444 22.181-49.444 49.445z" fill="#9d5e4a"/><path d="m256 225.951v98.889c27.264 0 49.444-22.181 49.444-49.444s-22.18-49.445-49.444-49.445z" fill="#865240"/></symbol><symbol id="hotel" viewBox="0 0 480 480"><title>hotel</title><g> <g> <path d="M472,76h-88V12c0-4.418-3.582-8-8-8H104c-4.418,0-8,3.582-8,8v112H8c-4.418,0-8,3.582-8,8v328c0,4.418,3.582,8,8,8 s8-3.582,8-8V140h80v328c0,4.418,3.582,8,8,8h272c4.418,0,8-3.582,8-8V92h80v368c0,4.418,3.582,8,8,8s8-3.582,8-8V84 C480,79.582,476.418,76,472,76z M232,460h-32v-72h32V460z M280,460h-32v-72h32V460z M368,460h-72v-80c0-4.418-3.582-8-8-8h-96 c-4.418,0-8,3.582-8,8v80h-72V20h256V460z"/> </g> </g><g> <g> <path d="M184,36h-48c-4.418,0-8,3.582-8,8v48c0,4.418,3.582,8,8,8h48c4.418,0,8-3.582,8-8V44C192,39.582,188.418,36,184,36z M176,84h-32V52h32V84z"/> </g> </g><g> <g> <path d="M264,36h-48c-4.418,0-8,3.582-8,8v48c0,4.418,3.582,8,8,8h48c4.418,0,8-3.582,8-8V44C272,39.582,268.418,36,264,36z M256,84h-32V52h32V84z"/> </g> </g><g> <g> <path d="M344,36h-48c-4.418,0-8,3.582-8,8v48c0,4.418,3.582,8,8,8h48c4.418,0,8-3.582,8-8V44C352,39.582,348.418,36,344,36z M336,84h-32V52h32V84z"/> </g> </g><g> <g> <path d="M184,116h-48c-4.418,0-8,3.582-8,8v48c0,4.418,3.582,8,8,8h48c4.418,0,8-3.582,8-8v-48C192,119.582,188.418,116,184,116z M176,164h-32v-32h32V164z"/> </g> </g><g> <g> <path d="M264,116h-48c-4.418,0-8,3.582-8,8v48c0,4.418,3.582,8,8,8h48c4.418,0,8-3.582,8-8v-48C272,119.582,268.418,116,264,116z M256,164h-32v-32h32V164z"/> </g> </g><g> <g> <path d="M344,116h-48c-4.418,0-8,3.582-8,8v48c0,4.418,3.582,8,8,8h48c4.418,0,8-3.582,8-8v-48C352,119.582,348.418,116,344,116z M336,164h-32v-32h32V164z"/> </g> </g><g> <g> <path d="M184,196h-48c-4.418,0-8,3.582-8,8v48c0,4.418,3.582,8,8,8h48c4.418,0,8-3.582,8-8v-48C192,199.582,188.418,196,184,196z M176,244h-32v-32h32V244z"/> </g> </g><g> <g> <path d="M264,196h-48c-4.418,0-8,3.582-8,8v48c0,4.418,3.582,8,8,8h48c4.418,0,8-3.582,8-8v-48C272,199.582,268.418,196,264,196z M256,244h-32v-32h32V244z"/> </g> </g><g> <g> <path d="M344,196h-48c-4.418,0-8,3.582-8,8v48c0,4.418,3.582,8,8,8h48c4.418,0,8-3.582,8-8v-48C352,199.582,348.418,196,344,196z M336,244h-32v-32h32V244z"/> </g> </g><g> <g> <path d="M184,276h-48c-4.418,0-8,3.582-8,8v48c0,4.418,3.582,8,8,8h48c4.418,0,8-3.582,8-8v-48C192,279.582,188.418,276,184,276z M176,324h-32v-32h32V324z"/> </g> </g><g> <g> <path d="M264,276h-48c-4.418,0-8,3.582-8,8v48c0,4.418,3.582,8,8,8h48c4.418,0,8-3.582,8-8v-48C272,279.582,268.418,276,264,276z M256,324h-32v-32h32V324z"/> </g> </g><g> <g> <path d="M344,276h-48c-4.418,0-8,3.582-8,8v48c0,4.418,3.582,8,8,8h48c4.418,0,8-3.582,8-8v-48C352,279.582,348.418,276,344,276z M336,324h-32v-32h32V324z"/> </g> </g><g> <g> <path d="M48,156h-8c-4.418,0-8,3.582-8,8v8c0,4.418,3.582,8,8,8h8c4.418,0,8-3.582,8-8v-8C56,159.582,52.418,156,48,156z"/> </g> </g><g> <g> <path d="M80,156h-8c-4.418,0-8,3.582-8,8v8c0,4.418,3.582,8,8,8h8c4.418,0,8-3.582,8-8v-8C88,159.582,84.418,156,80,156z"/> </g> </g><g> <g> <path d="M48,188h-8c-4.418,0-8,3.582-8,8v8c0,4.418,3.582,8,8,8h8c4.418,0,8-3.582,8-8v-8C56,191.582,52.418,188,48,188z"/> </g> </g><g> <g> <path d="M80,188h-8c-4.418,0-8,3.582-8,8v8c0,4.418,3.582,8,8,8h8c4.418,0,8-3.582,8-8v-8C88,191.582,84.418,188,80,188z"/> </g> </g><g> <g> <path d="M48,220h-8c-4.418,0-8,3.582-8,8v8c0,4.418,3.582,8,8,8h8c4.418,0,8-3.582,8-8v-8C56,223.582,52.418,220,48,220z"/> </g> </g><g> <g> <path d="M80,220h-8c-4.418,0-8,3.582-8,8v8c0,4.418,3.582,8,8,8h8c4.418,0,8-3.582,8-8v-8C88,223.582,84.418,220,80,220z"/> </g> </g><g> <g> <path d="M48,252h-8c-4.418,0-8,3.582-8,8v8c0,4.418,3.582,8,8,8h8c4.418,0,8-3.582,8-8v-8C56,255.582,52.418,252,48,252z"/> </g> </g><g> <g> <path d="M80,252h-8c-4.418,0-8,3.582-8,8v8c0,4.418,3.582,8,8,8h8c4.418,0,8-3.582,8-8v-8C88,255.582,84.418,252,80,252z"/> </g> </g><g> <g> <path d="M48,284h-8c-4.418,0-8,3.582-8,8v8c0,4.418,3.582,8,8,8h8c4.418,0,8-3.582,8-8v-8C56,287.582,52.418,284,48,284z"/> </g> </g><g> <g> <path d="M80,284h-8c-4.418,0-8,3.582-8,8v8c0,4.418,3.582,8,8,8h8c4.418,0,8-3.582,8-8v-8C88,287.582,84.418,284,80,284z"/> </g> </g><g> <g> <path d="M48,316h-8c-4.418,0-8,3.582-8,8v8c0,4.418,3.582,8,8,8h8c4.418,0,8-3.582,8-8v-8C56,319.582,52.418,316,48,316z"/> </g> </g><g> <g> <path d="M80,316h-8c-4.418,0-8,3.582-8,8v8c0,4.418,3.582,8,8,8h8c4.418,0,8-3.582,8-8v-8C88,319.582,84.418,316,80,316z"/> </g> </g><g> <g> <path d="M48,348h-8c-4.418,0-8,3.582-8,8v8c0,4.418,3.582,8,8,8h8c4.418,0,8-3.582,8-8v-8C56,351.582,52.418,348,48,348z"/> </g> </g><g> <g> <path d="M80,348h-8c-4.418,0-8,3.582-8,8v8c0,4.418,3.582,8,8,8h8c4.418,0,8-3.582,8-8v-8C88,351.582,84.418,348,80,348z"/> </g> </g><g> <g> <path d="M48,380h-8c-4.418,0-8,3.582-8,8v8c0,4.418,3.582,8,8,8h8c4.418,0,8-3.582,8-8v-8C56,383.582,52.418,380,48,380z"/> </g> </g><g> <g> <path d="M80,380h-8c-4.418,0-8,3.582-8,8v8c0,4.418,3.582,8,8,8h8c4.418,0,8-3.582,8-8v-8C88,383.582,84.418,380,80,380z"/> </g> </g><g> <g> <path d="M48,412h-8c-4.418,0-8,3.582-8,8v8c0,4.418,3.582,8,8,8h8c4.418,0,8-3.582,8-8v-8C56,415.582,52.418,412,48,412z"/> </g> </g><g> <g> <path d="M80,412h-8c-4.418,0-8,3.582-8,8v8c0,4.418,3.582,8,8,8h8c4.418,0,8-3.582,8-8v-8C88,415.582,84.418,412,80,412z"/> </g> </g><g> <g> <path d="M440,108h-32c-4.418,0-8,3.582-8,8v32c0,4.418,3.582,8,8,8h32c4.418,0,8-3.582,8-8v-32C448,111.582,444.418,108,440,108z M432,140h-16v-16h16V140z"/> </g> </g><g> <g> <path d="M440,172h-32c-4.418,0-8,3.582-8,8v32c0,4.418,3.582,8,8,8h32c4.418,0,8-3.582,8-8v-32C448,175.582,444.418,172,440,172z M432,204h-16v-16h16V204z"/> </g> </g><g> <g> <path d="M440,236h-32c-4.418,0-8,3.582-8,8v32c0,4.418,3.582,8,8,8h32c4.418,0,8-3.582,8-8v-32C448,239.582,444.418,236,440,236z M432,268h-16v-16h16V268z"/> </g> </g><g> <g> <path d="M440,300h-32c-4.418,0-8,3.582-8,8v32c0,4.418,3.582,8,8,8h32c4.418,0,8-3.582,8-8v-32C448,303.582,444.418,300,440,300z M432,332h-16v-16h16V332z"/> </g> </g><g> <g> <path d="M440,364h-32c-4.418,0-8,3.582-8,8v32c0,4.418,3.582,8,8,8h32c4.418,0,8-3.582,8-8v-32C448,367.582,444.418,364,440,364z M432,396h-16v-16h16V396z"/> </g> </g></symbol><symbol id="vector" viewBox="0 0 512 512"><title>vector</title><path d="m177 432h-60.44c-6.036-17.018-19.541-30.524-36.56-36.56v-60.44c0-11.046-8.954-20-20-20s-20 8.954-20 20v60.44c-23.278 8.257-40 30.487-40 56.56 0 33.084 26.916 60 60 60 26.073 0 48.303-16.722 56.56-40h60.44c11.046 0 20-8.954 20-20s-8.954-20-20-20zm-117 40c-11.028 0-20-8.972-20-20s8.972-20 20-20 20 8.972 20 20-8.972 20-20 20zm392-472c-26.073 0-48.303 16.722-56.56 40h-61.44c-11.046 0-20 8.954-20 20s8.954 20 20 20h61.44c6.036 17.018 19.541 30.524 36.56 36.56v59.44c0 11.046 8.954 20 20 20s20-8.954 20-20v-59.44c23.278-8.256 40-30.487 40-56.56 0-33.084-26.916-60-60-60zm0 80c-11.028 0-20-8.972-20-20s8.972-20 20-20 20 8.972 20 20-8.972 20-20 20zm25 178c0 13.807-11.193 25-25 25s-25-11.193-25-25c0-13.807 11.193-25 25-25s25 11.193 25 25zm-176 20c0 13.807-11.193 25-25 25s-25-11.193-25-25 11.193-25 25-25 25 11.193 25 25zm-124-238h-60.44c-8.257-23.278-30.487-40-56.56-40-33.084 0-60 26.916-60 60 0 26.073 16.722 48.303 40 56.56v59.44c0 11.046 8.954 20 20 20s20-8.954 20-20v-59.44c17.018-6.036 30.524-19.541 36.56-36.56h60.44c11.046 0 20-8.954 20-20s-8.954-20-20-20zm-117 40c-11.028 0-20-8.972-20-20s8.972-20 20-20 20 8.972 20 20-8.972 20-20 20zm220 372c0 13.807-11.193 25-25 25s-25-11.193-25-25c0-13.807 11.193-25 25-25s25 11.193 25 25z" fill="#0023c4"/><path d="m230 60c0-13.807 11.193-25 25-25s25 11.193 25 25c0 13.807-11.193 25-25 25s-25-11.193-25-25zm276.205 338.921-107.635-108.596c-7.13-36.393-23.809-72.394-48.484-104.51-5.199-6.767-14.118-9.488-22.208-6.78-36.576 12.244-82.022 6.228-138.937-18.391-7.413-3.206-16.026-1.639-21.835 3.971-5.809 5.611-7.673 14.165-4.726 21.685 19.989 50.99 25.556 100.363 16.1 142.782-1.505 6.752.586 13.803 5.53 18.643 27.45 26.873 70.399 48.372 105.185 53.194l103.559 105.117c3.915 3.973 9.08 5.964 14.249 5.964 5.068 0 10.14-1.915 14.035-5.752 7.869-7.752 7.963-20.415.211-28.284l-108.592-110.224c-3.443-3.495-8.051-5.603-12.947-5.921-23.671-1.543-56.928-16.656-79.925-35.682 5.895-35.401 3.531-74.005-6.871-113.782 27.138 8.564 52.152 12.83 75.329 12.829 13.241 0 25.888-1.394 37.973-4.175 15.643 22.89 26.587 47.549 32.126 72.367l-23.483 23.483c-7.811 7.811-7.811 20.474 0 28.284s20.474 7.811 28.284 0l16.795-16.795 97.858 98.732c3.91 3.945 9.056 5.92 14.204 5.92 5.088 0 10.179-1.93 14.079-5.795 7.845-7.776 7.901-20.439.126-28.284zm-446.205-165.921c-13.807 0-25 11.193-25 25 0 13.807 11.193 25 25 25s25-11.193 25-25c0-13.807-11.193-25-25-25z" fill="#ff5cf3"/></symbol><symbol id="layers" viewBox="0 0 512.008 512.008"><title>layers</title><path d="m299.004 273.489c-5.077 2.723-11.185 2.723-16.262 0l-198.212-102.194c-4.717-2.53-4.697-9.286.035-11.789l194.439-104.017c5.03-2.661 11.056-2.661 16.086 0l116.841 38.324-98.407-52.053c-35.975-19.029-79.064-19.029-115.039 0l-153.019 80.94c-33.838 17.898-33.978 66.216-.245 84.31l152.635 81.872c36.308 19.475 79.988 19.475 116.296 0l55.091-29.55z" fill="#cee1f2"/><path d="m256.004 323.537c-23.221.001-46.434-5.676-67.602-17.029l-152.634-81.872c-22.133-11.871-35.836-34.828-35.764-59.911.073-25.083 13.909-47.96 36.11-59.704l153.019-80.939c41.873-22.148 91.869-22.148 133.742 0l153.019 80.939c22.201 11.743 36.037 34.62 36.11 59.704.072 25.083-13.631 48.04-35.763 59.911l-152.636 81.872c-21.162 11.352-44.385 17.027-67.601 17.029zm0-276.062c-16.544 0-33.087 3.989-48.168 11.966l-153.018 80.939c-9.245 4.89-14.783 14.035-14.813 24.461s5.454 19.602 14.671 24.546l152.635 81.871c30.492 16.355 66.897 16.355 97.388 0l152.636-81.871c9.217-4.944 14.701-14.12 14.671-24.546s-5.568-19.571-14.813-24.461l-153.021-80.939c-15.081-7.977-31.624-11.966-48.168-11.966zm-57.519-5.714h.01zm125.12 445.747 177.853-95.394c9.734-5.221 13.393-17.345 8.172-27.078-5.221-9.734-17.344-13.393-27.078-8.172l-177.854 95.394c-30.489 16.355-66.895 16.355-97.465-.041l-177.853-94.394c-9.759-5.179-21.865-1.466-27.042 8.29-5.179 9.757-1.467 21.863 8.29 27.042l177.774 94.353c21.168 11.354 44.381 17.029 67.602 17.029 23.216 0 46.439-5.677 67.601-17.029z" fill="#0023c4"/><path d="m256.004 414.537c-23.221 0-46.434-5.676-67.602-17.029l-177.774-94.353c-9.757-5.179-13.469-17.285-8.29-27.042 5.177-9.756 17.283-13.469 27.042-8.29l177.853 94.394c30.569 16.396 66.976 16.397 97.465.041l177.854-95.394c9.734-5.22 21.857-1.563 27.078 8.172 5.221 9.733 1.563 21.857-8.172 27.078l-177.853 95.394c-21.162 11.352-44.385 17.029-67.601 17.029z" fill="#ff5cf3"/></symbol><symbol id="computer" viewBox="0 0 512 512"><title>computer</title><path d="m82 298.041v-164.082c0-55.206 44.644-99.959 99.716-99.959h-60.716c-55.229 0-100 44.771-100 100v164c0 55.228 44.771 100 100 100h60.716c-55.072 0-99.716-44.753-99.716-99.959z" fill="#cee1f2"/><path d="m392 418h-272.021c-66.157 0-119.979-53.822-119.979-119.979v-164.021c0-66.168 53.832-120 120-120h272c66.168 0 120 53.832 120 120v164c0 66.168-53.832 120-120 120zm-272-364c-44.112 0-80 35.888-80 80v164.021c0 44.1 35.879 79.979 79.979 79.979h272.021c44.112 0 80-35.888 80-80v-164c0-44.112-35.888-80-80-80zm252 424c0-11.046-8.954-20-20-20h-192c-11.046 0-20 8.954-20 20s8.954 20 20 20h192c11.046 0 20-8.954 20-20z" fill="#0023c4"/><path d="m188 272c-11.046 0-20-8.954-20-20v-56c0-33.084 26.916-60 60-60h57c11.046 0 20 8.954 20 20s-8.954 20-20 20h-57c-11.028 0-20 8.972-20 20v56c0 11.046-8.954 20-20 20zm149.143 34.143c7.811-7.811 7.811-20.475 0-28.285l-66-66c-7.811-7.811-20.475-7.811-28.285 0s-7.811 20.474 0 28.284l66 66c3.905 3.906 9.024 5.858 14.142 5.858s10.237-1.952 14.143-5.857z" fill="#ff5cf3"/></symbol></svg>