<svg viewBox="0 0 1024 600" xmlns="http://www.w3.org/2000/svg" fill-rule="evenodd" clip-rule="evenodd" stroke-linejoin="round" stroke-miterlimit="2">
  <path d="M1.411.129l493.035 1.495s6.004 122.333 275.227 122.34c269.227.007 253.587 115.148 253.587 115.148l-1.36 361.499L.751 600.428S-491.624-1.366 1.411.129z" fill="url(#_Linear1)" transform="translate(.98 -.354)"/>
  <path d="M271.382 583.889c37.066-13.662 79.925-21.465 125.576-21.465 48.84 0 94.485 8.93 133.246 24.406 38.445-15.118 83.553-23.824 131.775-23.824 44.71 0 86.745 7.484 123.264 20.624 36.02-12.667 77.287-19.864 121.127-19.864 47.379 0 91.75 8.406 129.741 23.035 36.961-13.568 79.686-21.32 125.183-21.32 140.424 0 254.431 73.84 254.431 164.788 0 90.948-114.007 164.787-254.43 164.787-47.379 0-91.75-8.406-129.742-23.035-36.96 13.568-79.685 21.32-125.183 21.32-44.71 0-86.744-7.487-123.263-20.624-36.021 12.665-77.287 19.861-121.128 19.861-48.84 0-94.484-8.93-133.246-24.406-38.445 15.118-83.552 23.824-131.775 23.824-44.864 0-87.032-7.536-123.648-20.762-37.066 13.663-79.925 21.467-125.576 21.467-140.427 0-254.431-73.84-254.431-164.788 0-90.948 114.004-164.787 254.431-164.787 44.864 0 87.032 7.538 123.648 20.763z" fill="#fff"/>
  <defs>
    <linearGradient id="_Linear1" x1="0" y1="0" x2="1" y2="0" gradientUnits="userSpaceOnUse" gradientTransform="matrix(-585.421 392.132 -21.9188 -32.7229 631.818 161.038)">
      <stop offset="0" stop-color="#2aa9ff"/>
      <stop offset=".07" stop-color="#48afea"/>
      <stop offset=".15" stop-color="#66b4d6"/>
      <stop offset=".37" stop-color="#73b6cd"/>
      <stop offset="1" stop-color="#3fffec"/>
    </linearGradient>
  </defs>
</svg>
